<svg width="200" height="200" viewBox="0 0 200 200" fill="none" xmlns="http://www.w3.org/2000/svg" role="img" aria-label="Tranche de citron">
  <!-- Ombre douce -->
  <ellipse cx="100" cy="162" rx="62" ry="10" fill="#000" opacity="0.08"/>
  <!-- Écorce -->
  <circle cx="100" cy="100" r="80" fill="#F4C536"/>
  <!-- Albedo (blanc) -->
  <circle cx="100" cy="100" r="70" fill="#FFF7D6"/>
  <!-- Pulpe -->
  <circle cx="100" cy="100" r="64" fill="#F7E36A"/>
  <!-- Noyau central -->
  <circle cx="100" cy="100" r="8" fill="#FFF7D6"/>

  <!-- Quartiers (8 segments) -->
  <g fill="#FCEB7A" stroke="#FFEAA0" stroke-width="2">
    <path d="M100 100 L100 40 A60 60 0 0 1 142.43 57.57 Z"/>
    <path d="M100 100 L142.43 57.57 A60 60 0 0 1 160 100 Z"/>
    <path d="M100 100 L160 100 A60 60 0 0 1 142.43 142.43 Z"/>
    <path d="M100 100 L142.43 142.43 A60 60 0 0 1 100 160 Z"/>
    <path d="M100 100 L100 160 A60 60 0 0 1 57.57 142.43 Z"/>
    <path d="M100 100 L57.57 142.43 A60 60 0 0 1 40 100 Z"/>
    <path d="M100 100 L40 100 A60 60 0 0 1 57.57 57.57 Z"/>
    <path d="M100 100 L57.57 57.57 A60 60 0 0 1 100 40 Z"/>
  </g>

  <!-- Traits fins dans les quartiers -->
  <g stroke="#FFF7D6" stroke-width="3" opacity="0.7" stroke-linecap="round">
    <line x1="100" y1="100" x2="100" y2="40"/>
    <line x1="100" y1="100" x2="142.43" y2="57.57"/>
    <line x1="100" y1="100" x2="160" y2="100"/>
    <line x1="100" y1="100" x2="142.43" y2="142.43"/>
    <line x1="100" y1="100" x2="100" y2="160"/>
    <line x1="100" y1="100" x2="57.57" y2="142.43"/>
    <line x1="100" y1="100" x2="40" y2="100"/>
    <line x1="100" y1="100" x2="57.57" y2="57.57"/>
  </g>

  <!-- Liseré écorce -->
  <circle cx="100" cy="100" r="80" fill="none" stroke="#E9B42E" stroke-width="4"/>
</svg>
